<svg width="213" height="62" viewBox="0 0 213 62" fill="none" xmlns="http://www.w3.org/2000/svg">
<path d="M32.6486 21.3941L59.1027 21.3941V12.7707L32.6486 12.7707V21.3941Z" fill="#E93C3D"/>
<path d="M68.8987 26.2649H10.6328V34.8882H68.8987V26.2649Z" fill="#E93C3D"/>
<path d="M62.1163 53.9124V0L51.1495 7.89925V61.8117L62.1163 53.9124Z" fill="#2C75BC"/>
<path d="M44.9554 53.6162L44.9554 7.80057L33.9887 7.80057L33.9887 53.6162H44.9554Z" fill="#2C75BC"/>
<path d="M27.7935 53.6488L27.7935 7.83316L16.8268 7.83316L16.8268 53.6488H27.7935Z" fill="#2C75BC"/>
<path d="M48.723 21.3941L68.8984 21.3941V12.7707L48.723 12.7707V21.3941Z" fill="#E93C3D"/>
<path d="M50.4803 26.2649H29.0491V34.8882H50.4803V26.2649Z" fill="#E93C3D"/>
<path d="M184.341 48.3827H0L10.0459 39.7594H194.387L184.341 48.3827Z" fill="#E93C3D"/>
<path d="M33.4034 12.7703H10.6328V21.3936H33.4034V12.7703Z" fill="#E93C3D"/>
<path d="M44.9554 53.6158L44.9554 36.6653H33.9887V53.6158H44.9554Z" fill="#2C75BC"/>
<path d="M62.1163 48.3828H51.1495V49.7657H62.1163V48.3828Z" fill="#1F5890"/>
<path d="M46.7132 48.3827V39.7594H44.9552V48.3827H46.7132Z" fill="#B22C2D"/>
<path d="M29.5524 34.8882L29.5524 26.2649H27.7944L27.7944 34.8882H29.5524Z" fill="#B22C2D"/>
<path d="M63.8739 34.8882V26.2649H62.1159V34.8882H63.8739Z" fill="#B22C2D"/>
<path d="M46.7132 21.3936V12.7703H44.9552V21.3936H46.7132Z" fill="#B22C2D"/>
<path d="M27.7926 48.3828H16.8259V49.7657H27.7926V48.3828Z" fill="#1F5890"/>
<path d="M27.7926 21.3941H16.8259V22.777H27.7926V21.3941Z" fill="#1F5890"/>
<path d="M62.1163 21.3941H51.1495V22.777H62.1163V21.3941Z" fill="#1F5890"/>
<path d="M44.9545 34.8884H33.9877V36.2714H44.9545V34.8884Z" fill="#1F5890"/>
<path d="M85.5635 25.7993C83.9626 25.7993 82.6199 25.666 81.5355 25.3995C80.4768 25.1125 79.6247 24.6923 78.9792 24.1389C78.3337 23.5649 77.8689 22.8577 77.5849 22.0172C77.3267 21.1563 77.1976 20.1518 77.1976 19.0039C77.1976 17.897 77.3267 16.9335 77.5849 16.1136C77.8431 15.2731 78.282 14.5761 78.9017 14.0227C79.5473 13.4692 80.3994 13.0592 81.458 12.7927C82.5425 12.5058 83.911 12.3623 85.5635 12.3623H103.651V17.405H87.1128C86.2349 17.405 85.6152 17.5587 85.2537 17.8662C84.918 18.1737 84.7502 18.6862 84.7502 19.4036C84.7502 20.1211 84.918 20.6336 85.2537 20.941C85.6152 21.228 86.2349 21.3715 87.1128 21.3715H96.2534C97.8542 21.3715 99.184 21.5048 100.243 21.7712C101.327 22.0377 102.179 22.4477 102.799 23.0012C103.444 23.5546 103.896 24.2516 104.155 25.092C104.439 25.9325 104.581 26.9164 104.581 28.0439C104.581 29.1713 104.451 30.1655 104.193 31.0265C103.935 31.8669 103.483 32.5741 102.838 33.1481C102.192 33.7016 101.34 34.1218 100.281 34.4088C99.2228 34.6957 97.8801 34.8392 96.2534 34.8392H77.4687V29.8273H94.7428C95.5949 29.8273 96.2017 29.6735 96.5632 29.3661C96.9247 29.0381 97.1054 28.5051 97.1054 27.7671C97.1054 26.9882 96.9118 26.4655 96.5245 26.199C96.163 25.9325 95.5691 25.7993 94.7428 25.7993H85.5635Z" fill="white"/>
<path d="M115.549 29.8888H124.496C125.452 29.8888 126.252 29.7965 126.898 29.612C127.569 29.4275 128.098 29.1098 128.486 28.6588C128.899 28.1874 129.183 27.5519 129.338 26.7525C129.518 25.9325 129.609 24.8871 129.609 23.6161C129.609 22.3452 129.518 21.2998 129.338 20.4798C129.157 19.6599 128.86 19.0141 128.447 18.5427C128.06 18.0712 127.53 17.7535 126.859 17.5895C126.213 17.405 125.426 17.3127 124.496 17.3127H115.549V29.8888ZM107.958 12.3623H124.535C126.627 12.3623 128.447 12.516 129.996 12.8235C131.571 13.1105 132.875 13.6742 133.908 14.5147C134.967 15.3346 135.754 16.4723 136.271 17.9277C136.813 19.3831 137.084 21.2793 137.084 23.6161C137.084 25.953 136.813 27.8491 136.271 29.3046C135.754 30.76 134.967 31.8977 133.908 32.7176C132.875 33.5376 131.571 34.1013 129.996 34.4088C128.447 34.6957 126.627 34.8392 124.535 34.8392H107.958V12.3623Z" fill="white"/>
<path d="M148.022 12.3623V34.8392H140.43V12.3623H148.022Z" fill="white"/>
<path d="M159.681 25.7993C158.08 25.7993 156.737 25.666 155.653 25.3995C154.594 25.1125 153.742 24.6923 153.097 24.1389C152.451 23.5649 151.986 22.8577 151.702 22.0172C151.444 21.1563 151.315 20.1518 151.315 19.0039C151.315 17.897 151.444 16.9335 151.702 16.1136C151.961 15.2731 152.399 14.5761 153.019 14.0227C153.665 13.4692 154.517 13.0592 155.575 12.7927C156.66 12.5058 158.028 12.3623 159.681 12.3623H177.768V17.405H161.23C160.352 17.405 159.733 17.5587 159.371 17.8662C159.035 18.1737 158.868 18.6862 158.868 19.4036C158.868 20.1211 159.035 20.6336 159.371 20.941C159.733 21.228 160.352 21.3715 161.23 21.3715H170.371C171.972 21.3715 173.301 21.5048 174.36 21.7712C175.445 22.0377 176.297 22.4477 176.916 23.0012C177.562 23.5546 178.014 24.2516 178.272 25.092C178.556 25.9325 178.698 26.9164 178.698 28.0439C178.698 29.1713 178.569 30.1655 178.311 31.0265C178.052 31.8669 177.601 32.5741 176.955 33.1481C176.31 33.7016 175.457 34.1218 174.399 34.4088C173.34 34.6957 171.997 34.8392 170.371 34.8392H151.586V29.8273H168.86C169.712 29.8273 170.319 29.6735 170.681 29.3661C171.042 29.0381 171.223 28.5051 171.223 27.7671C171.223 26.9882 171.029 26.4655 170.642 26.199C170.28 25.9325 169.687 25.7993 168.86 25.7993H159.681Z" fill="white"/>
<path d="M79.7344 42.5435H77.1976V41.3267H84.191V42.5435H81.6542V46.9567H79.7344V42.5435Z" fill="white"/>
<path d="M92.6837 44.6846H88.0116V45.7398H92.7229V46.9567H86.0919V41.3267H92.7033V42.5435H88.0116V43.5987H92.6837V44.6846Z" fill="white"/>
<path d="M96.9133 45.0928V46.9567H94.9936V41.3267H99.4795C99.8387 41.3267 100.181 41.3498 100.508 41.396C100.841 41.4371 101.135 41.5218 101.389 41.6501C101.644 41.7734 101.847 41.9505 101.997 42.1816C102.147 42.4126 102.222 42.713 102.222 43.0827C102.222 43.4061 102.163 43.6757 102.046 43.8913C101.928 44.107 101.765 44.2816 101.556 44.4151C101.778 44.5024 101.951 44.6256 102.075 44.7848C102.206 44.9388 102.271 45.1442 102.271 45.4009V46.9567H100.351V45.5703C100.351 45.3906 100.302 45.2674 100.204 45.2007C100.113 45.1288 99.9138 45.0928 99.6069 45.0928H96.9133ZM100.381 43.2598C100.381 43.116 100.358 43.0005 100.312 42.9132C100.273 42.8208 100.214 42.7489 100.136 42.6976C100.064 42.6462 99.9758 42.6129 99.8713 42.5975C99.7734 42.5769 99.6656 42.5666 99.5481 42.5666H96.9133V43.9607H99.5481C99.6656 43.9607 99.7734 43.9504 99.8713 43.9299C99.9758 43.9093 100.064 43.8734 100.136 43.822C100.214 43.7707 100.273 43.7014 100.312 43.6141C100.358 43.5217 100.381 43.4036 100.381 43.2598Z" fill="white"/>
<path d="M106.494 45.0928V46.9567H104.574V41.3267H109.06C109.419 41.3267 109.762 41.3498 110.089 41.396C110.422 41.4371 110.716 41.5218 110.97 41.6501C111.225 41.7734 111.427 41.9505 111.578 42.1816C111.728 42.4126 111.803 42.713 111.803 43.0827C111.803 43.4061 111.744 43.6757 111.627 43.8913C111.509 44.107 111.346 44.2816 111.137 44.4151C111.359 44.5024 111.532 44.6256 111.656 44.7848C111.787 44.9388 111.852 45.1442 111.852 45.4009V46.9567H109.932V45.5703C109.932 45.3906 109.883 45.2674 109.785 45.2007C109.694 45.1288 109.495 45.0928 109.188 45.0928H106.494ZM109.961 43.2598C109.961 43.116 109.939 43.0005 109.893 42.9132C109.854 42.8208 109.795 42.7489 109.717 42.6976C109.645 42.6462 109.557 42.6129 109.452 42.5975C109.354 42.5769 109.246 42.5666 109.129 42.5666H106.494V43.9607H109.129C109.246 43.9607 109.354 43.9504 109.452 43.9299C109.557 43.9093 109.645 43.8734 109.717 43.822C109.795 43.7707 109.854 43.7014 109.893 43.6141C109.939 43.5217 109.961 43.4036 109.961 43.2598Z" fill="white"/>
<path d="M120.747 44.6846H116.075V45.7398H120.786V46.9567H114.155V41.3267H120.767V42.5435H116.075V43.5987H120.747V44.6846Z" fill="white"/>
<path d="M122.616 43.9838H125.878V45.0466H122.616V43.9838Z" fill="white"/>
<path d="M129.495 44.6923C129.09 44.6923 128.751 44.659 128.476 44.5922C128.209 44.5203 127.993 44.4151 127.83 44.2764C127.667 44.1327 127.549 43.9555 127.477 43.745C127.412 43.5294 127.379 43.2778 127.379 42.9902C127.379 42.713 127.412 42.4717 127.477 42.2663C127.543 42.0558 127.654 41.8812 127.81 41.7426C127.974 41.6039 128.189 41.5012 128.457 41.4345C128.731 41.3626 129.077 41.3267 129.495 41.3267H134.069V42.5898H129.887C129.665 42.5898 129.508 42.6283 129.417 42.7053C129.332 42.7823 129.289 42.9107 129.289 43.0904C129.289 43.2701 129.332 43.3984 129.417 43.4755C129.508 43.5473 129.665 43.5833 129.887 43.5833H132.198C132.603 43.5833 132.939 43.6167 133.207 43.6834C133.481 43.7502 133.697 43.8528 133.854 43.9915C134.017 44.1301 134.131 44.3047 134.196 44.5152C134.268 44.7257 134.304 44.9722 134.304 45.2546C134.304 45.537 134.272 45.786 134.206 46.0016C134.141 46.2122 134.027 46.3893 133.863 46.5331C133.7 46.6717 133.485 46.7769 133.217 46.8488C132.949 46.9207 132.61 46.9567 132.198 46.9567H127.448V45.7013H131.816C132.032 45.7013 132.185 45.6628 132.277 45.5857C132.368 45.5036 132.414 45.3701 132.414 45.1852C132.414 44.9901 132.365 44.8592 132.267 44.7925C132.176 44.7257 132.025 44.6923 131.816 44.6923H129.495Z" fill="white"/>
<path d="M139.073 41.3267H141.15L144.656 46.9567H142.717L142.061 45.863H138.221L137.565 46.9567H135.567L139.073 41.3267ZM138.907 44.7154H141.365L140.131 42.6668L138.907 44.7154Z" fill="white"/>
<path d="M148.411 41.3267V46.9567H146.491V41.3267H148.411Z" fill="white"/>
<path d="M156.648 45.3162V41.3267H158.421V46.9567H156.09L152.603 43.1058V46.9567H150.82V41.3267H153.093L156.648 45.3162Z" fill="white"/>
<path d="M162.869 42.5435H160.332V41.3267H167.325V42.5435H164.789V46.9567H162.869V42.5435Z" fill="white"/>
<path d="M175.818 44.6846H171.146V45.7398H175.857V46.9567H169.226V41.3267H175.838V42.5435H171.146V43.5987H175.818V44.6846Z" fill="white"/>
</svg>
